<svg id="Layer_1" data-name="Layer 1" xmlns="http://www.w3.org/2000/svg" viewBox="0 0 143.94 162.56"><defs><style>.cls-1{fill:#2c2c54;}.cls-2{fill:#228c74;}.cls-3{fill:#58c1a7;}</style></defs><title>pocketirc-logo</title><path class="cls-1" d="M216,144V266.45l71.12,39.84a1.69,1.69,0,0,0,1.7,0L360,266.45V144Zm72,157-32.34-18.12h0l-34.52-19.35V149.7H354.38l.47,113.77Z" transform="translate(-216.02 -143.96)"/><path class="cls-2" d="M251.07,273.7l2-3.49,8.47,4.75L345,162.31v-1.73h-10.5v-4H349v.34l5.36-7.22H221.14V263.47l34.52,19.35,3.43-4.62Zm21.42-117.12h31v4h-31Zm-7.88,50a21.21,21.21,0,0,1,.31-3.47,17.84,17.84,0,0,1,.9-3.28,13.85,13.85,0,0,1,1.49-2.89,9.89,9.89,0,0,1,2.16-2.31,9.38,9.38,0,0,1,2.82-1.53,10.77,10.77,0,0,1,3.56-.56,11.53,11.53,0,0,1,4.24.73,9.3,9.3,0,0,1,3.21,2,10.3,10.3,0,0,1,2.16,3.21,14.09,14.09,0,0,1,1.08,4.13h-4a11.6,11.6,0,0,0-.67-2.67,7.41,7.41,0,0,0-1.28-2.17,5.66,5.66,0,0,0-2-1.47,6.61,6.61,0,0,0-2.75-.53,6.48,6.48,0,0,0-2.53.47,5.58,5.58,0,0,0-1.87,1.27,7,7,0,0,0-1.34,1.86,12.72,12.72,0,0,0-.86,2.26,16.67,16.67,0,0,0-.46,2.44,20.27,20.27,0,0,0-.15,2.42V211a20.27,20.27,0,0,0,.15,2.42,16.42,16.42,0,0,0,.46,2.44,12.62,12.62,0,0,0,.85,2.28,7.17,7.17,0,0,0,1.32,1.87,5.88,5.88,0,0,0,1.89,1.29,6.43,6.43,0,0,0,2.54.47,7,7,0,0,0,2.75-.5,5.64,5.64,0,0,0,2-1.41,7,7,0,0,0,1.28-2.12,11.52,11.52,0,0,0,.67-2.66h4a14,14,0,0,1-1.13,4,10.41,10.41,0,0,1-2.19,3.13,9.52,9.52,0,0,1-3.23,2.05,11.18,11.18,0,0,1-4.14.73,10.79,10.79,0,0,1-3.55-.55,9.76,9.76,0,0,1-2.83-1.53,10,10,0,0,1-2.16-2.3,13.85,13.85,0,0,1-1.49-2.89,17.41,17.41,0,0,1-.9-3.28,21.12,21.12,0,0,1-.31-3.47Zm-37.64-50h14.5v4H231v10.5h-4ZM226.59,193h4.7v31.62h-4.7Zm12.31,73.87L227,260.2V246.53h4v11.33l9.88,5.53Zm4.62-55.17v12.9h-4V193h9.28a15.67,15.67,0,0,1,4.17.63,10.21,10.21,0,0,1,3.43,1.75,8.42,8.42,0,0,1,2.29,2.94,9.77,9.77,0,0,1,.83,4.16,8.27,8.27,0,0,1-1.67,5.14,8.87,8.87,0,0,1-1.87,1.85,12.39,12.39,0,0,1-2.39,1.37l6.72,13.5,0,.26h-4.23l-6.21-12.9Z" transform="translate(-216.02 -143.96)"/><path class="cls-2" d="M255.48,202.45a6.44,6.44,0,0,0-.5-2.66,5.28,5.28,0,0,0-1.39-1.92,5.9,5.9,0,0,0-2.11-1.15,9.12,9.12,0,0,0-2.68-.41h-5.28v12.11h5.38a8.52,8.52,0,0,0,2.55-.43,6.33,6.33,0,0,0,2.1-1.16A5.27,5.27,0,0,0,255,205,5.81,5.81,0,0,0,255.48,202.45Z" transform="translate(-216.02 -143.96)"/><path class="cls-3" d="M349,156.92v14.16h-4v-8.77L261.49,275l3.7,2.07-1.95,3.49-4.15-2.32-3.43,4.62h0L288,300.94l66.85-37.47-.47-113.77ZM287.28,294l-11.87-6.66,2-3.49,9.93,5.57,10-5.47,1.92,3.51Zm24.54-13.43-1.92-3.51,12.59-6.89,1.92,3.51ZM349,260.21l-12,6.57-1.92-3.51,9.93-5.43V246.53h4Zm.35-35.58h-4.7V193h4.7Z" transform="translate(-216.02 -143.96)"/><polygon class="cls-1" points="14.94 16.62 25.44 16.62 25.44 12.62 10.94 12.62 10.94 27.12 14.94 27.12 14.94 16.62"/><polygon class="cls-1" points="14.94 102.57 10.94 102.57 10.94 116.24 22.87 122.92 24.83 119.44 14.94 113.9 14.94 102.57"/><polygon class="cls-1" points="35.04 129.74 43.06 134.24 47.21 136.56 49.17 133.07 45.47 131 37 126.25 35.04 129.74"/><polygon class="cls-1" points="71.28 145.46 61.34 139.9 59.39 143.38 71.26 150.04 83.19 143.5 81.27 140 71.28 145.46"/><rect class="cls-1" x="309.98" y="273.37" width="14.36" height="4" transform="translate(-309.28 42.08) rotate(-28.69)"/><polygon class="cls-1" points="128.99 113.88 119.07 119.31 120.99 122.82 132.99 116.25 132.99 102.57 128.99 102.57 128.99 113.88"/><polygon class="cls-1" points="118.49 12.62 118.49 16.62 128.99 16.62 128.99 18.35 128.99 27.12 132.99 27.12 132.99 12.96 132.99 12.62 118.49 12.62"/><rect class="cls-1" x="56.46" y="12.62" width="31.02" height="4"/><rect class="cls-1" x="10.57" y="49.05" width="4.7" height="31.62"/><rect class="cls-1" x="128.65" y="49.05" width="4.7" height="31.62"/><path class="cls-1" d="M260.28,224.61l0-.26-6.72-13.5a12.39,12.39,0,0,0,2.39-1.37,8.87,8.87,0,0,0,1.87-1.85,8.27,8.27,0,0,0,1.67-5.14,9.77,9.77,0,0,0-.83-4.16,8.42,8.42,0,0,0-2.29-2.94,10.21,10.21,0,0,0-3.43-1.75,15.67,15.67,0,0,0-4.17-.63h-9.28v31.6h4v-12.9h6.32l6.21,12.9ZM251.45,208a8.52,8.52,0,0,1-2.55.43h-5.38V196.31h5.28a9.12,9.12,0,0,1,2.68.41,5.9,5.9,0,0,1,2.11,1.15,5.28,5.28,0,0,1,1.39,1.92,6.44,6.44,0,0,1,.5,2.66A5.81,5.81,0,0,1,255,205a5.27,5.27,0,0,1-1.41,1.85A6.33,6.33,0,0,1,251.45,208Z" transform="translate(-216.02 -143.96)"/><path class="cls-1" d="M265.82,217.77a13.85,13.85,0,0,0,1.49,2.89,10,10,0,0,0,2.16,2.3,9.76,9.76,0,0,0,2.83,1.53,10.79,10.79,0,0,0,3.55.55,11.18,11.18,0,0,0,4.14-.73,9.52,9.52,0,0,0,3.23-2.05,10.41,10.41,0,0,0,2.19-3.13,14,14,0,0,0,1.13-4h-4a11.52,11.52,0,0,1-.67,2.66,7,7,0,0,1-1.28,2.12,5.64,5.64,0,0,1-2,1.41,7,7,0,0,1-2.75.5,6.43,6.43,0,0,1-2.54-.47,5.88,5.88,0,0,1-1.89-1.29,7.17,7.17,0,0,1-1.32-1.87,12.62,12.62,0,0,1-.85-2.28,16.42,16.42,0,0,1-.46-2.44,20.27,20.27,0,0,1-.15-2.42v-4.45a20.27,20.27,0,0,1,.15-2.42,16.67,16.67,0,0,1,.46-2.44,12.72,12.72,0,0,1,.86-2.26,7,7,0,0,1,1.34-1.86,5.58,5.58,0,0,1,1.87-1.27,6.48,6.48,0,0,1,2.53-.47,6.61,6.61,0,0,1,2.75.53,5.66,5.66,0,0,1,2,1.47,7.41,7.41,0,0,1,1.28,2.17,11.6,11.6,0,0,1,.67,2.67h4a14.09,14.09,0,0,0-1.08-4.13,10.3,10.3,0,0,0-2.16-3.21,9.3,9.3,0,0,0-3.21-2,11.53,11.53,0,0,0-4.24-.73,10.77,10.77,0,0,0-3.56.56,9.38,9.38,0,0,0-2.82,1.53,9.89,9.89,0,0,0-2.16,2.31,13.85,13.85,0,0,0-1.49,2.89,17.84,17.84,0,0,0-.9,3.28,21.21,21.21,0,0,0-.31,3.47V211a21.12,21.12,0,0,0,.31,3.47A17.41,17.41,0,0,0,265.82,217.77Z" transform="translate(-216.02 -143.96)"/></svg>