<svg id="Layer_1" data-name="Layer 1" xmlns="http://www.w3.org/2000/svg" xmlns:xlink="http://www.w3.org/1999/xlink" viewBox="0 0 1242 2208"><defs><style>.cls-1{fill:url(#linear-gradient);}.cls-2,.cls-6{fill:#2c2c54;}.cls-3{fill:#228c74;}.cls-4{fill:#58c1a7;}.cls-5{opacity:0.2;}.cls-6{stroke:#fff;stroke-linejoin:round;}</style><linearGradient id="linear-gradient" x1="621" y1="2787.91" x2="621" y2="-391.14" gradientUnits="userSpaceOnUse"><stop offset="0" stop-color="#2c2c54"/><stop offset="0.2" stop-color="#2a2a4f"/><stop offset="0.43" stop-color="#232342"/><stop offset="0.67" stop-color="#17172c"/><stop offset="0.91" stop-color="#07070d"/><stop offset="1"/></linearGradient></defs><title>splashscreen</title><rect class="cls-1" width="1242" height="2208"/><path class="cls-2" d="M303.15,475.28V1016l314.08,176a7.47,7.47,0,0,0,7.51,0l314.35-176V475.28Zm318,693.35-142.82-80h0l-152.45-85.45V500.45H914.27l2.08,502.43Z" transform="translate(-0.12 -0.14)"/><path class="cls-3" d="M458,1048.06l8.83-15.41,37.41,21L872.85,556.14V548.5H826.48V530.83h64v1.5l23.67-31.88H325.85v502.43l152.45,85.46,15.15-20.4Zm94.59-517.23H689.53V548.5H552.62Zm-34.8,220.81a94.83,94.83,0,0,1,1.37-15.32,78.55,78.55,0,0,1,4-14.49,60.94,60.94,0,0,1,6.58-12.76,43.62,43.62,0,0,1,9.54-10.2,41.38,41.38,0,0,1,12.45-6.76,47.74,47.74,0,0,1,15.72-2.47,51,51,0,0,1,18.73,3.22,41.09,41.09,0,0,1,14.17,8.84,45.37,45.37,0,0,1,9.54,14.17,62,62,0,0,1,4.77,18.24H597a51.59,51.59,0,0,0-3-11.79,32.86,32.86,0,0,0-5.65-9.58,25,25,0,0,0-8.84-6.49,29.24,29.24,0,0,0-12.14-2.35A28.63,28.63,0,0,0,556.25,706a24.71,24.71,0,0,0-8.26,5.61,31,31,0,0,0-5.92,8.21,56.51,56.51,0,0,0-3.8,10,74.47,74.47,0,0,0-2,10.78,90.89,90.89,0,0,0-.66,10.69v19.91a90.76,90.76,0,0,0,.66,10.69,71.86,71.86,0,0,0,2,10.78A55.71,55.71,0,0,0,542,802.7a31.53,31.53,0,0,0,5.82,8.25,26,26,0,0,0,8.35,5.7,28.55,28.55,0,0,0,11.22,2.08,31.15,31.15,0,0,0,12.14-2.21,25,25,0,0,0,8.84-6.23,31,31,0,0,0,5.65-9.36,51.14,51.14,0,0,0,3-11.75h17.66a61.44,61.44,0,0,1-5,17.67A45.91,45.91,0,0,1,600,820.67a42.07,42.07,0,0,1-14.26,9.05A49.45,49.45,0,0,1,567.46,833a47.67,47.67,0,0,1-15.67-2.43,43,43,0,0,1-12.5-6.76,44.06,44.06,0,0,1-9.54-10.16,60.69,60.69,0,0,1-6.58-12.76,76.71,76.71,0,0,1-4-14.48A95,95,0,0,1,517.82,771ZM351.6,530.83h64V548.5H369.39v46.37H351.73Zm-1.68,160.84h20.76V831.31H349.92Zm54.36,326.23-52.55-29.46V928.07h17.66v50L413,1002.53Zm20.41-243.64v57H407V691.67h41a69.22,69.22,0,0,1,18.42,2.78,45.41,45.41,0,0,1,15.15,7.73,37.2,37.2,0,0,1,10.11,13,43.3,43.3,0,0,1,3.67,18.37,36.56,36.56,0,0,1-7.38,22.7,39,39,0,0,1-8.26,8.17,54.92,54.92,0,0,1-10.55,6.05l29.67,59.62v1.14H480.15l-27.42-57Z" transform="translate(-0.12 -0.14)"/><path class="cls-3" d="M477.5,733.4a28.32,28.32,0,0,0-2.2-11.74,23.31,23.31,0,0,0-6.14-8.48,26.1,26.1,0,0,0-9.32-5.08A40.24,40.24,0,0,0,448,706.29H424.69v53.48h23.76a37.88,37.88,0,0,0,11.26-1.9,28,28,0,0,0,9.27-5.12,23.22,23.22,0,0,0,6.4-8.08A25.52,25.52,0,0,0,477.5,733.4Z" transform="translate(-0.12 -0.14)"/><path class="cls-4" d="M890.51,532.33v62.54H872.85V556.14L504.05,1053.8l16.34,9.14-8.62,15.42-18.32-10.25-15.15,20.4h0l142.82,79.85,295.23-165.48-2.08-502.43ZM617.94,1137.71l-52.42-29.41,8.83-15.41,43.86,24.6,44.16-24.16,8.48,15.5Zm108.38-59.31-8.48-15.5,55.6-30.43,8.48,15.5Zm164.19-89.91-53,29L829,1002l43.85-24V928.07h17.66Zm1.55-157.13H871.3V691.67h20.76Z" transform="translate(-0.12 -0.14)"/><polygon class="cls-2" points="369.1 548.36 415.47 548.36 415.47 530.69 351.43 530.69 351.43 594.73 369.1 594.73 369.1 548.36"/><polygon class="cls-2" points="369.1 927.93 351.43 927.93 351.43 988.3 404.12 1017.8 412.77 1002.44 369.1 977.97 369.1 927.93"/><polygon class="cls-2" points="457.86 1047.92 493.28 1067.8 511.61 1078.04 520.27 1062.63 503.93 1053.49 466.52 1032.51 457.86 1047.92"/><polygon class="cls-2" points="617.91 1117.35 574.01 1092.79 565.4 1108.16 617.82 1137.57 670.51 1108.69 662.03 1093.23 617.91 1117.35"/><rect class="cls-2" x="718.19" y="1046.49" width="63.42" height="17.66" transform="translate(-414.68 489.43) rotate(-28.69)"/><polygon class="cls-2" points="872.77 977.88 828.96 1001.86 837.44 1017.36 890.43 988.35 890.43 927.93 872.77 927.93 872.77 977.88"/><polygon class="cls-2" points="826.4 530.69 826.4 548.36 872.77 548.36 872.77 556 872.77 594.73 890.43 594.73 890.43 532.2 890.43 530.69 826.4 530.69"/><rect class="cls-2" x="552.46" y="530.69" width="136.99" height="17.66"/><rect class="cls-2" x="349.8" y="691.58" width="20.76" height="139.64"/><rect class="cls-2" x="871.27" y="691.58" width="20.76" height="139.64"/><path class="cls-2" d="M498.7,831.27v-1.15L469,770.5a54.7,54.7,0,0,0,10.56-6,39.25,39.25,0,0,0,8.26-8.17,36.49,36.49,0,0,0,7.37-22.7,43.14,43.14,0,0,0-3.66-18.37,37.1,37.1,0,0,0-10.12-13,44.91,44.91,0,0,0-15.14-7.73,68.82,68.82,0,0,0-18.42-2.78h-41V831.27h17.66v-57h27.91l27.43,57Zm-39-73.35a37.55,37.55,0,0,1-11.26,1.89H424.69V706.29H448a40.24,40.24,0,0,1,11.84,1.81,26.1,26.1,0,0,1,9.32,5.08,23.31,23.31,0,0,1,6.14,8.48,28.32,28.32,0,0,1,2.2,11.74,25.52,25.52,0,0,1-2.12,11.27,23.29,23.29,0,0,1-6.22,8.17A28.19,28.19,0,0,1,459.71,757.92Z" transform="translate(-0.12 -0.14)"/><path class="cls-2" d="M523.17,801.06a60.69,60.69,0,0,0,6.58,12.76A44.06,44.06,0,0,0,539.29,824a43,43,0,0,0,12.5,6.76,47.67,47.67,0,0,0,15.67,2.43,49.25,49.25,0,0,0,18.29-3.23A42.07,42.07,0,0,0,600,820.89a45.91,45.91,0,0,0,9.67-13.82,61.44,61.44,0,0,0,5-17.67H597a51.14,51.14,0,0,1-3,11.75,31,31,0,0,1-5.65,9.36,24.87,24.87,0,0,1-8.84,6.23A31,31,0,0,1,567.42,819a28.37,28.37,0,0,1-11.22-2.08,26,26,0,0,1-8.35-5.7,31.53,31.53,0,0,1-5.82-8.25,55.71,55.71,0,0,1-3.76-10.07,71.86,71.86,0,0,1-2-10.78,88.67,88.67,0,0,1-.66-10.69V751.73a88.63,88.63,0,0,1,.66-10.68,74.47,74.47,0,0,1,2-10.78,56.51,56.51,0,0,1,3.8-10,31,31,0,0,1,5.92-8.22,24.53,24.53,0,0,1,8.26-5.6,28.45,28.45,0,0,1,11.17-2.08,29.07,29.07,0,0,1,12.14,2.34,25,25,0,0,1,8.84,6.49,33,33,0,0,1,5.65,9.59,51.46,51.46,0,0,1,3,11.79h17.66a62,62,0,0,0-4.77-18.24,45.3,45.3,0,0,0-9.54-14.18,41.07,41.07,0,0,0-14.17-8.83,51,51,0,0,0-18.73-3.22,47.48,47.48,0,0,0-15.72,2.47,41.16,41.16,0,0,0-12.45,6.76,43.43,43.43,0,0,0-9.54,10.2,60.69,60.69,0,0,0-6.58,12.76,78.13,78.13,0,0,0-4,14.49,94.73,94.73,0,0,0-1.37,15.32v19a94.85,94.85,0,0,0,1.37,15.33A77.39,77.39,0,0,0,523.17,801.06Z" transform="translate(-0.12 -0.14)"/><g class="cls-5"><path id="svg_1" data-name="svg 1" class="cls-6" d="M281.2,1843.5h0c2.5-12,16-19.39,30.13-16.44l11.64,2.42h0l55.86,11.64,104.72,21.82a28.61,28.61,0,0,1,16.78,10.15,20.72,20.72,0,0,1,4.29,17l-11.35,54.45h0l-6.8,32.66h0c-2.51,12-16,19.39-30.14,16.45L351.6,1971.79,267.09,2012l28.66-51.81-11.64-2.42c-14.14-3-23.57-15.09-21.06-27.12h0l6.8-32.66h0Z" transform="translate(-0.12 -0.14)"/></g><g class="cls-5"><path id="svg_1-2" data-name="svg 1" class="cls-6" d="M312.88,1400.55h0c-6-9.34-1.92-22.61,9.06-29.64l9-5.78h0l43.37-27.77,81.32-52.06a25.84,25.84,0,0,1,17.22-4,18.66,18.66,0,0,1,13.48,8.23l27.07,42.27h0l16.23,25.37h0c6,9.34,1.93,22.61-9,29.63l-81.32,52.06-29.12,79.27-14.24-51.5-9,5.78c-11,7-24.72,5.16-30.7-4.18h0L340,1442.82h0Z" transform="translate(-0.12 -0.14)"/></g><g class="cls-5"><path id="svg_1-3" data-name="svg 1" class="cls-6" d="M861.08,1558.38h0c4.46-7.52,15.25-9.36,24.09-4.11l7.27,4.32h0l34.92,20.75,65.47,38.89a20.5,20.5,0,0,1,8.95,10.71,14.76,14.76,0,0,1-1,12.42l-20.22,34h0l-12.13,20.42h0c-4.47,7.52-15.25,9.36-24.09,4.11L878.83,1661l-66.18,7.52,31.26-28.26-7.27-4.32c-8.84-5.25-12.38-15.6-7.92-23.12h0l12.14-20.43h0Z" transform="translate(-0.12 -0.14)"/></g></svg>